<?xml version="1.0" encoding="UTF-8" standalone="no"?><!DOCTYPE svg PUBLIC "-//W3C//DTD SVG 1.1//EN" "http://www.w3.org/Graphics/SVG/1.1/DTD/svg11.dtd"><svg width="100%" height="100%" viewBox="0 0 500 500" version="1.1" xmlns="http://www.w3.org/2000/svg" xmlns:xlink="http://www.w3.org/1999/xlink" xml:space="preserve" xmlns:serif="http://www.serif.com/" style="fill-rule:evenodd;clip-rule:evenodd;stroke-linejoin:round;stroke-miterlimit:2;"><g><path d="M349.465,344.803l-0,-49.733l49.732,-24.866l0,99.465l-49.732,24.866l-0,-0.221l49.535,-24.744l-49.535,-24.767Z" style="fill:url(#_Linear1);"/><path d="M174.642,356.865l0.019,49.567l75.339,37.568l149,-74.43l-49.535,-24.767l-99.482,49.741l-75.341,-37.679Z" style="fill:url(#_Linear2);"/><path d="M125.179,332.127l-23.858,-11.932l-49.474,24.996l74.528,37.163l-1.196,-50.227Z" style="fill:#818181;"/><path d="M399.197,170.739l49.733,24.866l-198.93,99.465l-198.93,-99.465l49.733,-24.866l149.197,74.599l149.197,-74.599Z" style="fill:url(#_Linear3);"/><path d="M448.93,194.605l-0,198.93l-198.93,99.465l0,-49.732l149.197,-74.599l0,-99.465l-149.197,74.599l0,-49.733l198.93,-99.465Z" style="fill:#fff;"/><path d="M250.041,438.03l-0.041,-87.011l49.732,-24.866l0,87.032l-49.691,24.845Z" style="fill:#00dcc9;"/><path d="M250.041,438.03l-0.041,-87.011l49.732,-24.866l0,87.032l-49.691,24.845Zm6.969,-65.312l-0.008,-17.374c0,0 35.73,-17.865 35.73,-17.865c0,0 0,71.379 0,71.379c0,0 -35.696,17.849 -35.696,17.849l-0.026,-53.989Z" style="fill:#00b5a7;"/><path d="M124,281.57l-72.93,-37.232l0.777,-49.344l198.153,99.076l0,49.733l-75.376,-37.688l0.037,99.483l75.339,37.67l0,49.732l-198.93,-99.465l0.777,-49.344l74.53,37.265l-2.377,-99.886Z" style="fill:#929292;"/><path d="M256.217,180.064l-11.684,-81.19l-137.514,68.757l142.981,71.49l142.981,-71.49l-89.01,-44.505l-47.754,56.938l20.203,-70.714l-0.298,-0.149l-19.905,70.863Z" style="fill:#fff;"/><path d="M256.217,180.064c-0,-0 72.526,-67.346 80.815,-96.357c7.664,-26.824 -31.083,-77.707 -31.083,-77.707l-49.732,174.064Z" style="fill:#00dcc9;"/><path d="M256.217,180.064c-0,-0 -20.761,-76.339 -14.298,-99.35c5.916,-21.058 64.03,-74.714 64.03,-74.714c16.521,43.311 -2.782,102.543 -49.732,174.064Z" style="fill:#00b4a7;"/></g><defs><linearGradient id="_Linear1" x1="0" y1="0" x2="1" y2="0" gradientUnits="userSpaceOnUse" gradientTransform="matrix(-61.9682,-6.18422,6.18422,-61.9682,399,338.554)"><stop offset="0" style="stop-color:#fff;stop-opacity:1"/><stop offset="1" style="stop-color:#5a5a5a;stop-opacity:1"/></linearGradient><linearGradient id="_Linear2" x1="0" y1="0" x2="1" y2="0" gradientUnits="userSpaceOnUse" gradientTransform="matrix(-127,-34.1263,34.1263,-127,319,416.481)"><stop offset="0" style="stop-color:#fff;stop-opacity:1"/><stop offset="0.5" style="stop-color:#ececec;stop-opacity:1"/><stop offset="1" style="stop-color:#b4b4b4;stop-opacity:1"/></linearGradient><linearGradient id="_Linear3" x1="0" y1="0" x2="1" y2="0" gradientUnits="userSpaceOnUse" gradientTransform="matrix(-262.278,-146.089,146.089,-262.278,199.278,239.121)"><stop offset="0" style="stop-color:#fff;stop-opacity:1"/><stop offset="0.48" style="stop-color:#ebebeb;stop-opacity:1"/><stop offset="1" style="stop-color:#b4b4b4;stop-opacity:1"/></linearGradient></defs></svg>